<svg width="32" height="32" viewBox="0 0 32 32" fill="none" xmlns="http://www.w3.org/2000/svg">
<g clip-path="url(#clip0_899_1609)">
<rect width="32" height="32" rx="3.97265" fill="#969F9D"/>
<path d="M15.8608 20.565L15.8412 32L20.8284 32.0001L20.8481 20.5651H24.7976C25.1527 20.5651 25.4518 20.2994 25.4937 19.9466L25.9305 16.2607C25.98 15.8437 25.6543 15.4772 25.2345 15.4772H20.8284V12.3938C20.8284 10.9955 21.2167 10.0426 23.2219 10.0426L25.0786 10.0418C25.4655 10.0415 25.7792 9.72779 25.7792 9.34077V6.23274C25.7792 5.84556 25.4653 5.53174 25.0782 5.53174H22.0527C18.3656 5.53174 15.8412 7.78229 15.8412 11.9155V15.4771H12.8758C12.4876 15.4771 12.1733 15.7925 12.1748 16.1807L12.1891 19.8667C12.1905 20.2528 12.5039 20.565 12.89 20.565H15.8608Z" fill="white"/>
</g>
<defs>
<clipPath id="clip0_899_1609">
<rect width="32" height="32" rx="3.97265" fill="white"/>
</clipPath>
</defs>
</svg>
