<svg width="32" height="32" viewBox="0 0 32 32" fill="none" xmlns="http://www.w3.org/2000/svg">
<rect width="32" height="32" rx="4.06555" fill="#969F9D"/>
<path d="M23.5707 12.0969C23.5834 12.2676 23.5834 12.4372 23.5834 12.6069C23.5834 17.7989 19.653 23.7817 12.4702 23.7817C10.2572 23.7817 8.20139 23.1372 6.47137 22.0179C6.78557 22.0539 7.08813 22.0666 7.41493 22.0666C9.24094 22.0666 10.9215 21.4465 12.2646 20.3886C10.5472 20.3525 9.10809 19.2215 8.61158 17.6653C8.85305 17.7014 9.09548 17.7258 9.34955 17.7258C9.69963 17.7258 10.0516 17.677 10.3784 17.5922C8.58734 17.2275 7.24619 15.647 7.24619 13.7379V13.6892C7.76694 13.9807 8.37109 14.163 9.01112 14.1874C7.95895 13.4834 7.26947 12.2793 7.26947 10.9171C7.26947 10.1878 7.46245 9.51895 7.80088 8.93588C9.72387 11.3179 12.6147 12.875 15.8555 13.0456C15.7954 12.7531 15.7585 12.4499 15.7585 12.1457C15.7585 9.98112 17.5002 8.21826 19.6646 8.21826C20.7895 8.21826 21.8049 8.69213 22.5186 9.4585C23.401 9.28787 24.2467 8.95928 24.9972 8.5098C24.7073 9.42145 24.0896 10.1878 23.2798 10.6744C24.0663 10.5886 24.8285 10.3702 25.5286 10.0659C24.9972 10.844 24.333 11.5373 23.5707 12.0969Z" fill="#F4F6F9"/>
</svg>
