<svg width="32" height="32" viewBox="0 0 32 32" fill="none" xmlns="http://www.w3.org/2000/svg">
<rect width="32" height="32" rx="4.06555" fill="#969F9D"/>
<path d="M7.37477 14.8467C12.7445 12.5058 16.3242 10.9623 18.1141 10.2167C23.2306 8.08739 24.2924 7.71758 24.9859 7.7052C25.1385 7.70261 25.478 7.74034 25.6996 7.91977C25.8838 8.07097 25.9356 8.27546 25.9615 8.41889C25.9845 8.56232 26.0162 8.88921 25.9903 9.14439C25.7141 12.0591 24.5141 19.132 23.904 22.3966C23.6479 23.778 23.1385 24.2411 22.6464 24.2863C21.5759 24.3848 20.7644 23.579 19.7285 22.8995C18.1083 21.8359 17.1933 21.174 15.6192 20.1363C13.8005 18.937 14.9803 18.2778 16.0163 17.2006C16.2868 16.9187 21.0004 12.6287 21.0896 12.2396C21.1011 12.191 21.1127 12.0095 21.0033 11.9139C20.8968 11.818 20.7385 11.8508 20.6234 11.8767C20.4593 11.9136 17.8723 13.6267 12.8537 17.0157C12.1199 17.5209 11.4552 17.7671 10.8566 17.7542C10.2005 17.7401 8.93443 17.3821 7.99343 17.0762C6.84237 16.7009 5.92435 16.5025 6.00493 15.8651C6.04521 15.5333 6.50284 15.1938 7.37477 14.8467V14.8467Z" fill="#F4F6F9"/>
</svg>
