<svg width="24" height="24" viewBox="0 0 24 24" fill="none" xmlns="http://www.w3.org/2000/svg">
<g opacity="0.56">
<path d="M21.3333 12H24C24 5.37331 18.6267 0 12 0V2.66669C17.1533 2.66669 21.3333 6.84669 21.3333 12ZM22.6667 16.6667C21.0067 16.6667 19.4067 16.4 17.9067 15.9067C17.4467 15.76 16.92 15.8667 16.5534 16.2334L13.6201 19.1734C9.84006 17.2534 6.76006 14.1667 4.83337 10.3934L7.76669 7.45337C8.13338 7.08669 8.24 6.56006 8.09338 6.10006C7.60006 4.60006 7.33337 2.99337 7.33337 1.33337C7.33331 0.593313 6.74 0 6 0H1.33331C0.593313 0 0 0.593313 0 1.33331C0 13.8533 10.1467 24 22.6667 24C23.4067 24 24 23.4067 24 22.6667V18C24 17.26 23.4067 16.6667 22.6667 16.6667Z" fill="#969F9D"/>
<path d="M16 12H18.6667C18.6667 8.32 15.68 5.33331 12 5.33331V8C14.2067 8 16 9.79331 16 12Z" fill="#969F9D"/>
</g>
</svg>
