<svg width="11" height="13" viewBox="0 0 11 13" fill="none" xmlns="http://www.w3.org/2000/svg">
<path d="M6.6 8.3H2.4V9.5H6.6V8.3ZM9.6 11.3H1.2V4.7H9.6V11.3ZM9.6 1.7H9V0.5H7.8V1.7H3V0.5H1.8V1.7H1.2C0.534 1.7 0 2.24 0 2.9V11.3C0 11.6183 0.126428 11.9235 0.351472 12.1485C0.576515 12.3736 0.88174 12.5 1.2 12.5H9.6C9.91826 12.5 10.2235 12.3736 10.4485 12.1485C10.6736 11.9235 10.8 11.6183 10.8 11.3V2.9C10.8 2.58174 10.6736 2.27652 10.4485 2.05147C10.2235 1.82643 9.91826 1.7 9.6 1.7ZM8.4 5.9H2.4V7.1H8.4V5.9Z" fill="#757F8C"/>
</svg>
