<svg width="32" height="32" viewBox="0 0 32 32" fill="none" xmlns="http://www.w3.org/2000/svg">
<rect width="32" height="32" rx="3.97265" fill="#969F9D"/>
<path d="M18.4524 20.4546C18.4517 20.336 18.417 20.2125 18.3734 20.1016C18.3151 19.9559 18.1904 19.8833 18.0338 19.868C17.8502 19.8498 17.7033 19.9245 17.5702 20.043C17.5169 20.0898 17.4926 20.1595 17.4926 20.1595L17.4954 24.0167C17.4954 24.0167 17.5273 24.0599 17.5321 24.0655C17.6402 24.1834 17.7663 24.2768 17.9278 24.3103C18.1939 24.3654 18.3817 24.2538 18.4336 24.0055C18.4468 23.9434 18.4544 23.8793 18.4544 23.8158C18.4558 22.6949 18.4579 21.5747 18.4524 20.4546ZM18.4524 20.4546C18.4517 20.336 18.417 20.2125 18.3734 20.1016C18.3151 19.9559 18.1904 19.8833 18.0338 19.868C17.8502 19.8498 17.7033 19.9245 17.5702 20.043C17.5169 20.0898 17.4926 20.1595 17.4926 20.1595L17.4954 24.0167C17.4954 24.0167 17.5273 24.0599 17.5321 24.0655C17.6402 24.1834 17.7663 24.2768 17.9278 24.3103C18.1939 24.3654 18.3817 24.2538 18.4336 24.0055C18.4468 23.9434 18.4544 23.8793 18.4544 23.8158C18.4558 22.6949 18.4579 21.5747 18.4524 20.4546ZM22.6398 14.7777C18.214 14.6821 13.786 14.6821 9.35949 14.7777C7.82391 14.8104 6.59601 16.0743 6.59601 17.6206V24.5789C6.59601 26.1259 7.82391 27.3898 9.35949 27.4225C13.786 27.5181 18.214 27.5181 22.6398 27.4225C24.1761 27.3898 25.404 26.1259 25.404 24.5789V17.6206C25.404 16.0744 24.1761 14.8104 22.6398 14.7777ZM10.6595 25.2129H9.38305V17.9499H8.06159V16.7349H11.9837V17.9471H10.6595V25.2129ZM15.2274 22.1983V25.2136H14.0972V24.5245C14.0563 24.5684 14.0334 24.5921 14.0119 24.6165C13.7687 24.8927 13.4929 25.1229 13.1409 25.245C12.9691 25.3043 12.7924 25.3245 12.6115 25.2931C12.3648 25.2519 12.1992 25.109 12.0994 24.883C12.0065 24.6744 11.983 24.4512 11.9823 24.2266C11.9795 23.3966 11.9809 19.0038 11.9809 18.9612H13.1083C13.1104 18.9996 13.1146 22.153 13.1153 23.6909C13.1153 23.7746 13.116 23.8604 13.1326 23.942C13.1742 24.1485 13.3315 24.2371 13.529 24.1645C13.7562 24.0808 13.9295 23.9232 14.075 23.7342C14.0965 23.707 14.0965 23.6582 14.0965 23.6191V18.9543L15.2274 18.9515C15.2274 18.9515 15.2274 21.1535 15.2274 22.1983ZM19.5271 24.6109C19.3761 25.0685 19.0434 25.3015 18.5653 25.2966C18.1766 25.2931 17.8613 25.1375 17.6014 24.8537C17.5723 24.8223 17.4919 24.7365 17.4919 24.7365V25.2122H16.3597V16.7341H17.4919C17.4919 17.6367 17.4919 19.5248 17.4919 19.5248C17.4919 19.5248 17.5557 19.3965 17.6139 19.3302C17.7892 19.1328 18.0026 18.9801 18.266 18.9131C18.7004 18.8036 19.2014 18.9389 19.4398 19.4502C19.5805 19.7522 19.62 20.0744 19.62 20.4023C19.6221 21.5873 19.6221 22.7723 19.6207 23.9574C19.62 24.1792 19.5971 24.3983 19.5271 24.6109ZM23.7091 24.3725C23.513 24.9507 23.1076 25.2715 22.513 25.3594C22.1444 25.4138 21.7792 25.4062 21.4334 25.2485C20.9601 25.0337 20.692 24.6452 20.5769 24.1507C20.5236 23.9205 20.4972 23.6792 20.4945 23.4427C20.4855 22.5143 20.4896 21.5853 20.4917 20.6569C20.4924 20.1715 20.6074 19.7237 20.938 19.3519C21.3149 18.9271 21.7972 18.7688 22.3481 18.8044C22.5137 18.8148 22.6828 18.842 22.8401 18.8943C23.3758 19.0715 23.6619 19.4754 23.7742 20.011C23.8172 20.2175 23.8331 20.4316 23.8366 20.643C23.8456 21.1382 23.8331 22.2298 23.8331 22.2298H21.6649V23.7942C21.6649 24.0753 21.8908 24.3027 22.17 24.3027C22.4486 24.3027 22.6745 24.0753 22.6745 23.7942V22.99H23.8393C23.8393 22.99 23.8567 23.9393 23.7091 24.3725ZM22.6745 20.3814C22.6745 20.101 22.4486 19.8729 22.17 19.8729C21.8908 19.8729 21.6649 20.101 21.6649 20.3814V21.2595H22.6745V20.3814ZM18.3734 20.1016C18.3151 19.9559 18.1904 19.8833 18.0338 19.868C17.8502 19.8498 17.7033 19.9245 17.5702 20.043C17.5169 20.0898 17.4926 20.1595 17.4926 20.1595L17.4954 24.0167C17.4954 24.0167 17.5273 24.0599 17.5321 24.0655C17.6402 24.1834 17.7663 24.2768 17.9278 24.3103C18.1939 24.3654 18.3817 24.2538 18.4336 24.0055C18.4468 23.9434 18.4544 23.8793 18.4544 23.8158C18.4558 22.6949 18.4579 21.5747 18.4524 20.4546C18.4517 20.336 18.417 20.2125 18.3734 20.1016Z" fill="white"/>
<path d="M21.2677 6.73177L21.2673 13.0262H20.1086L20.11 12.35C19.9818 12.477 19.8725 12.5957 19.7523 12.7023C19.5393 12.8911 19.298 13.032 19.0158 13.0876C18.5825 13.1729 18.2134 13.035 18.0753 12.5833C18.0292 12.4328 18.0015 12.2707 18.0003 12.1136V6.73177H19.1503V11.532C19.1503 11.5956 19.1554 11.6599 19.1664 11.7223C19.2014 11.9201 19.3466 12.0132 19.5358 11.9472C19.7665 11.8668 19.9425 11.706 20.0919 11.5166C20.1131 11.4895 20.1093 11.439 20.1093 11.3993V6.73177H21.2677Z" fill="white"/>
<path d="M11.6836 7.82559C11.432 6.75835 10.905 4.50537 10.905 4.50537H9.58643C9.58643 4.50537 10.5995 7.88731 11.0526 9.39558C11.0689 9.45012 11.0763 9.50934 11.0763 9.56646L11.0758 13.0249H12.2918L12.2913 9.56646C12.2913 9.50934 12.2988 9.45012 12.315 9.39558C12.7681 7.88731 13.7812 4.50537 13.7812 4.50537H12.4626C12.4626 4.50537 11.9355 6.75835 11.6841 7.82559H11.6836Z" fill="white"/>
<path d="M15.3682 6.57421C14.4519 6.57421 13.7091 7.32193 13.7091 8.24429V11.5127C13.7091 12.4351 14.4519 13.1828 15.3682 13.1828C16.2846 13.1828 17.0274 12.4351 17.0274 11.5127V8.24429C17.0275 7.32193 16.2846 6.57421 15.3682 6.57421ZM15.8471 11.5787C15.8471 11.8444 15.6323 12.0606 15.3683 12.0606C15.1044 12.0606 14.8896 11.8444 14.8896 11.5787V8.17824C14.8896 7.91249 15.1044 7.69634 15.3683 7.69634C15.6323 7.69634 15.8471 7.91256 15.8471 8.17824V11.5787Z" fill="white"/>
</svg>
